<svg width="25" height="25" viewBox="0 0 25 25" fill="none" xmlns="http://www.w3.org/2000/svg">
<g clip-path="url(#clip0_1_1421)">
<path d="M12.5811 1.37221C12.3893 1.37572 12.2065 1.45439 12.0721 1.59129C11.9377 1.72819 11.8625 1.91237 11.8625 2.10421V16.0182C11.8625 16.2123 11.9396 16.3985 12.0769 16.5358C12.2142 16.6731 12.4004 16.7502 12.5945 16.7502C12.7886 16.7502 12.9747 16.673 13.112 16.5357C13.2492 16.3985 13.3263 16.2123 13.3263 16.0182V2.10431C13.3263 2.00706 13.3069 1.91079 13.2693 1.8211C13.2317 1.73142 13.1766 1.65013 13.1072 1.58199C13.0379 1.51384 12.9556 1.4602 12.8653 1.4242C12.7749 1.3882 12.6783 1.37046 12.5811 1.37221ZM23.6552 5.54071C23.5598 5.54355 23.466 5.56495 23.3788 5.60371L17.0965 8.40731C16.9679 8.46533 16.8588 8.55922 16.7823 8.67772C16.7057 8.79622 16.665 8.93429 16.665 9.07536C16.665 9.21643 16.7057 9.3545 16.7823 9.473C16.8588 9.5915 16.9679 9.68539 17.0965 9.74341L23.3788 12.5568C23.4729 12.5991 23.5749 12.6212 23.6781 12.6216C23.8459 12.6217 24.0086 12.5641 24.139 12.4585C24.2694 12.3529 24.3595 12.2057 24.3944 12.0416C24.4292 11.8774 24.4066 11.7063 24.3303 11.5569C24.254 11.4074 24.1287 11.2887 23.9754 11.2206L19.1894 9.07631L23.9754 6.93971C24.1522 6.86013 24.2903 6.71384 24.3596 6.53277C24.4289 6.3517 24.4237 6.15058 24.3452 5.97331C24.2858 5.84111 24.1885 5.72947 24.0657 5.65246C23.9429 5.57546 23.8001 5.53664 23.6552 5.54071ZM1.15619 10.5727C1.04332 10.5705 0.931483 10.5945 0.829424 10.6428C0.727366 10.691 0.637858 10.7622 0.567905 10.8508C0.497953 10.9394 0.449455 11.043 0.426206 11.1535C0.402956 11.264 0.405587 11.3783 0.433892 11.4876C2.16989 18.1646 8.20869 22.8286 15.1161 22.8286C15.3102 22.8286 15.4964 22.7515 15.6337 22.6142C15.771 22.4769 15.8481 22.2907 15.8481 22.0966C15.8481 21.9025 15.771 21.7163 15.6337 21.579C15.4964 21.4417 15.3102 21.3646 15.1161 21.3646C12.0829 21.3656 9.13508 20.3604 6.73443 18.5065C4.33379 16.6525 2.61596 14.0546 1.85009 11.1197C1.80987 10.9654 1.72031 10.8284 1.59505 10.7296C1.46978 10.6309 1.31567 10.5758 1.15619 10.5727Z" fill="white"/>
</g>
<defs>
<clipPath id="clip0_1_1421">
<rect width="24" height="24" fill="white" transform="translate(0.410522 0.100342)"/>
</clipPath>
</defs>
</svg>
