<svg width="194" height="130" viewBox="0 0 194 130" fill="none" xmlns="http://www.w3.org/2000/svg">
<g clip-path="url(#clip0_1_1397)">
<g opacity="0.25">
<path d="M-71.8 80.3999C74.2793 80.3999 192.7 62.7151 192.7 40.8999C192.7 19.0847 74.2793 1.3999 -71.8 1.3999C-217.879 1.3999 -336.3 19.0847 -336.3 40.8999C-336.3 62.7151 -217.879 80.3999 -71.8 80.3999Z" stroke="white"/>
<path d="M-71.8 92.3999C74.2793 92.3999 192.7 74.7151 192.7 52.8999C192.7 31.0847 74.2793 13.3999 -71.8 13.3999C-217.879 13.3999 -336.3 31.0847 -336.3 52.8999C-336.3 74.7151 -217.879 92.3999 -71.8 92.3999Z" stroke="white"/>
<path d="M-71.8 105.4C74.2793 105.4 192.7 87.7151 192.7 65.8999C192.7 44.0847 74.2793 26.3999 -71.8 26.3999C-217.879 26.3999 -336.3 44.0847 -336.3 65.8999C-336.3 87.7151 -217.879 105.4 -71.8 105.4Z" stroke="white"/>
<path d="M-71.8 117.4C74.2793 117.4 192.7 99.7151 192.7 77.8999C192.7 56.0847 74.2793 38.3999 -71.8 38.3999C-217.879 38.3999 -336.3 56.0847 -336.3 77.8999C-336.3 99.7151 -217.879 117.4 -71.8 117.4Z" stroke="white"/>
<path d="M-71.8 129.4C74.2793 129.4 192.7 111.715 192.7 89.8999C192.7 68.0847 74.2793 50.3999 -71.8 50.3999C-217.879 50.3999 -336.3 68.0847 -336.3 89.8999C-336.3 111.715 -217.879 129.4 -71.8 129.4Z" stroke="white"/>
</g>
</g>
<defs>
<clipPath id="clip0_1_1397">
<rect width="530" height="129" fill="white" transform="translate(-336.8 0.899902)"/>
</clipPath>
</defs>
</svg>
