<svg width="214" height="129" viewBox="0 0 214 129" fill="none" xmlns="http://www.w3.org/2000/svg">
<g clip-path="url(#clip0_1_1366)">
<g opacity="0.25">
<path d="M265.8 79.5C411.879 79.5 530.3 61.8152 530.3 40C530.3 18.1848 411.879 0.5 265.8 0.5C119.721 0.5 1.30005 18.1848 1.30005 40C1.30005 61.8152 119.721 79.5 265.8 79.5Z" stroke="white"/>
<path d="M265.8 91.5C411.879 91.5 530.3 73.8152 530.3 52C530.3 30.1848 411.879 12.5 265.8 12.5C119.721 12.5 1.30005 30.1848 1.30005 52C1.30005 73.8152 119.721 91.5 265.8 91.5Z" stroke="white"/>
<path d="M265.8 104.5C411.879 104.5 530.3 86.8152 530.3 65C530.3 43.1848 411.879 25.5 265.8 25.5C119.721 25.5 1.30005 43.1848 1.30005 65C1.30005 86.8152 119.721 104.5 265.8 104.5Z" stroke="white"/>
<path d="M265.8 116.5C411.879 116.5 530.3 98.8152 530.3 77C530.3 55.1848 411.879 37.5 265.8 37.5C119.721 37.5 1.30005 55.1848 1.30005 77C1.30005 98.8152 119.721 116.5 265.8 116.5Z" stroke="white"/>
<path d="M265.8 128.5C411.879 128.5 530.3 110.815 530.3 89C530.3 67.1848 411.879 49.5 265.8 49.5C119.721 49.5 1.30005 67.1848 1.30005 89C1.30005 110.815 119.721 128.5 265.8 128.5Z" stroke="white"/>
</g>
</g>
<defs>
<clipPath id="clip0_1_1366">
<rect width="530" height="129" fill="white" transform="translate(0.800049)"/>
</clipPath>
</defs>
</svg>
