<svg width="25" height="25" viewBox="0 0 25 25" fill="none" xmlns="http://www.w3.org/2000/svg">
<g clip-path="url(#clip0_1_1425)">
<path d="M23.9551 7.58643L12.9864 0.273927C12.612 0.0435361 12.2124 0.0414267 11.8346 0.273927L0.865866 7.58643C0.584616 7.77388 0.410522 8.10876 0.410522 8.44354V15.756C0.410522 16.0908 0.584616 16.4256 0.865913 16.6131L11.8347 23.9267C12.2091 24.1571 12.6086 24.1592 12.9864 23.9267L23.9552 16.6131C24.2364 16.4257 24.4106 16.0908 24.4106 15.756V8.44354C24.4105 8.10876 24.2364 7.77388 23.9551 7.58643ZM13.4418 3.05957L21.5177 8.44354L17.915 10.8543L13.4418 7.86763V3.05957ZM11.3793 3.05957V7.86763L6.90604 10.8543L3.30337 8.44354L11.3793 3.05957ZM2.47302 10.3721L5.05785 12.0998L2.47302 13.8275V10.3721ZM11.3793 21.14L3.30337 15.756L6.90604 13.3453L11.3793 16.3319V21.14ZM12.4105 14.5373L8.76763 12.0998L12.4105 9.66229L16.0534 12.0998L12.4105 14.5373ZM13.4418 21.14V16.3319L17.915 13.3453L21.5177 15.756L13.4418 21.14ZM22.348 13.8275L19.7632 12.0998L22.348 10.3721V13.8275Z" fill="white"/>
</g>
<defs>
<clipPath id="clip0_1_1425">
<rect width="24" height="24" fill="white" transform="translate(0.410522 0.100342)"/>
</clipPath>
</defs>
</svg>
